{
    "accessors": [
        {
            "bufferView": 0,
            "byteOffset": 0,
            "componentType": 5123,
            "count": 71856,
            "type": "SCALAR",
            "max": [63383],
            "min": [0]
        },
        {
            "bufferView": 1,
            "byteOffset": 0,
            "componentType": 5126,
            "count": 63384,
            "type": "VEC3",
            "max": [7.32932186126709, 7.32932186126709, 38.25899887084961],
            "min": [
                -7.32932186126709, -7.32932186126709, -0.0005000000819563866
            ],
            "name": "POSITION"
        },
        {
            "bufferView": 1,
            "byteOffset": 12,
            "componentType": 5126,
            "count": 63384,
            "type": "VEC2",
            "max": [1.117799997329712, 0.1425199955701828],
            "min": [0.034869998693466187, -1.1425000429153442],
            "name": "TEXCOORD_0"
        }
    ],
    "asset": { "generator": "Aspose.3D 23.2", "version": "2.0" },
    "buffers": [
        {
            "uri": "data:application/octet-stream;base64,",
            "byteLength": 1580840
        }
    ],
    "bufferViews": [
        { "buffer": 0, "byteOffset": 0, "byteLength": 143712, "target": 34963 },
        {
            "buffer": 0,
            "byteOffset": 143716,
            "byteLength": 1437120,
            "byteStride": 20,
            "target": 34962
        }
    ],
    "materials": [
        {
            "name": "material01",
            "pbrMetallicRoughness": {
                "baseColorFactor": [
                    0.8745098039215686, 0.8745098039215686, 0.8745098039215686,
                    1
                ],
                "metallicFactor": 0,
                "roughnessFactor": 0
            },
            "emissiveFactor": [0, 0, 0],
            "alphaMode": "OPAQUE",
            "doubleSided": false
        }
    ],
    "meshes": [
        {
            "primitives": [
                {
                    "attributes": { "POSITION": 1, "TEXCOORD_0": 2 },
                    "indices": 0,
                    "material": 0,
                    "mode": 4
                }
            ],
            "name": "mesh01"
        }
    ],
    "nodes": [{ "mesh": 0, "name": "mesh01" }],
    "samplers": [
        { "magFilter": 9729, "minFilter": 9729, "wrapS": 10497, "wrapT": 10497 }
    ],
    "scene": 0,
    "scenes": [{ "nodes": [0] }],
    "textures": [{ "sampler": 0, "source": 0, "name": "" }]
}
