{
    "accessors": [
        {
            "bufferView": 0,
            "byteOffset": 0,
            "componentType": 5125,
            "count": 89280,
            "type": "SCALAR",
            "max": [70974],
            "min": [0]
        },
        {
            "bufferView": 1,
            "byteOffset": 0,
            "componentType": 5126,
            "count": 70975,
            "type": "VEC3",
            "max": [5.63838005065918, 5.638370037078857, 20.350000381469727],
            "min": [-5.63838005065918, -5.638370037078857, 0],
            "name": "POSITION"
        },
        {
            "bufferView": 1,
            "byteOffset": 12,
            "componentType": 5126,
            "count": 70975,
            "type": "VEC2",
            "max": [1.208359956741333, -0.032499998807907104],
            "min": [0, -0.9674999713897705],
            "name": "TEXCOORD_0"
        }
    ],
    "asset": { "generator": "Aspose.3D 23.2", "version": "2.0" },
    "buffers": [
        {
            "uri": "data:application/octet-stream;base64,",
            "byteLength": 2142728
        }
    ],
    "bufferViews": [
        { "buffer": 0, "byteOffset": 0, "byteLength": 357120, "target": 34963 },
        {
            "buffer": 0,
            "byteOffset": 357124,
            "byteLength": 1785600,
            "byteStride": 20,
            "target": 34962
        }
    ],
    "materials": [
        {
            "name": "material01",
            "pbrMetallicRoughness": {
                "baseColorFactor": [1, 1, 1, 1],
                "metallicFactor": 0,
                "roughnessFactor": 0
            },
            "emissiveFactor": [0, 0, 0],
            "alphaMode": "OPAQUE",
            "doubleSided": false
        }
    ],
    "meshes": [
        {
            "primitives": [
                {
                    "attributes": { "POSITION": 1, "TEXCOORD_0": 2 },
                    "indices": 0,
                    "material": 0,
                    "mode": 4
                }
            ],
            "name": "mesh01"
        }
    ],
    "nodes": [{ "mesh": 0, "name": "mesh01" }],
    "samplers": [
        { "magFilter": 9729, "minFilter": 9729, "wrapS": 10497, "wrapT": 10497 }
    ],
    "scene": 0,
    "scenes": [{ "nodes": [0] }],
    "textures": [{ "sampler": 0, "source": 0, "name": "" }]
}
