{
    "accessors": [
        {
            "bufferView": 0,
            "byteOffset": 0,
            "componentType": 5123,
            "count": 18102,
            "type": "SCALAR",
            "max": [15333],
            "min": [0]
        },
        {
            "bufferView": 1,
            "byteOffset": 0,
            "componentType": 5126,
            "count": 15334,
            "type": "VEC3",
            "max": [7.464399814605713, 7.464399814605713, 30.954999923706055],
            "min": [-7.464399814605713, -7.464399814605713, 0],
            "name": "POSITION"
        },
        {
            "bufferView": 1,
            "byteOffset": 12,
            "componentType": 5126,
            "count": 15334,
            "type": "VEC2",
            "max": [1.208400011062622, 0.4798299968242645],
            "min": [0.03355000168085098, -1.4837000370025635],
            "name": "TEXCOORD_0"
        }
    ],
    "asset": { "generator": "Aspose.3D 23.2", "version": "2.0" },
    "buffers": [
        {
            "uri": "data:application/octet-stream;base64,",
            "byteLength": 398252
        }
    ],
    "bufferViews": [
        { "buffer": 0, "byteOffset": 0, "byteLength": 36204, "target": 34963 },
        {
            "buffer": 0,
            "byteOffset": 36208,
            "byteLength": 362040,
            "byteStride": 20,
            "target": 34962
        }
    ],
    "materials": [
        {
            "name": "material01",
            "pbrMetallicRoughness": {
                "baseColorFactor": [
                    0.8745098039215686, 0.8745098039215686, 0.8745098039215686,
                    1
                ],
                "metallicFactor": 0,
                "roughnessFactor": 0
            },
            "emissiveFactor": [0, 0, 0],
            "alphaMode": "OPAQUE",
            "doubleSided": false
        }
    ],
    "meshes": [
        {
            "primitives": [
                {
                    "attributes": { "POSITION": 1, "TEXCOORD_0": 2 },
                    "indices": 0,
                    "material": 0,
                    "mode": 4
                }
            ],
            "name": "mesh01"
        }
    ],
    "nodes": [{ "mesh": 0, "name": "mesh01" }],
    "samplers": [
        { "magFilter": 9729, "minFilter": 9729, "wrapS": 10497, "wrapT": 10497 }
    ],
    "scene": 0,
    "scenes": [{ "nodes": [0] }],
    "textures": [{ "sampler": 0, "source": 0, "name": "" }]
}
