{
    "accessors": [
        {
            "bufferView": 0,
            "byteOffset": 0,
            "componentType": 5123,
            "count": 40896,
            "type": "SCALAR",
            "max": [32580],
            "min": [0]
        },
        {
            "bufferView": 1,
            "byteOffset": 0,
            "componentType": 5126,
            "count": 32581,
            "type": "VEC3",
            "max": [6.561079978942871, 6.561079978942871, 23.87700080871582],
            "min": [-6.561079978942871, -6.561079978942871, 0],
            "name": "POSITION"
        },
        {
            "bufferView": 1,
            "byteOffset": 12,
            "componentType": 5126,
            "count": 32581,
            "type": "VEC2",
            "max": [1.083340048789978, -0],
            "min": [0, -1],
            "name": "TEXCOORD_0"
        }
    ],
    "asset": { "generator": "Aspose.3D 23.2", "version": "2.0" },
    "buffers": [
        {
            "uri": "data:application/octet-stream;base64,",
            "byteLength": 899720
        }
    ],
    "bufferViews": [
        { "buffer": 0, "byteOffset": 0, "byteLength": 81792, "target": 34963 },
        {
            "buffer": 0,
            "byteOffset": 81796,
            "byteLength": 817920,
            "byteStride": 20,
            "target": 34962
        }
    ],
    "materials": [
        {
            "name": "material01",
            "pbrMetallicRoughness": {
                "baseColorFactor": [1, 1, 1, 1],
                "metallicFactor": 0,
                "roughnessFactor": 0
            },
            "emissiveFactor": [0, 0, 0],
            "alphaMode": "OPAQUE",
            "doubleSided": false
        }
    ],
    "meshes": [
        {
            "primitives": [
                {
                    "attributes": { "POSITION": 1, "TEXCOORD_0": 2 },
                    "indices": 0,
                    "material": 0,
                    "mode": 4
                }
            ],
            "name": "mesh01"
        }
    ],
    "nodes": [{ "mesh": 0, "name": "mesh01" }],
    "samplers": [
        { "magFilter": 9729, "minFilter": 9729, "wrapS": 10497, "wrapT": 10497 }
    ],
    "scene": 0,
    "scenes": [{ "nodes": [0] }],
    "textures": [{ "sampler": 0, "source": 0, "name": "" }]
}
